# xmcd
#
# Track frame offsets:
# 150
# 17685
# 36084
# 54521
# 73470
# 90469
# 109553
# 124137
# 140280
# 158310
# 176976
# 192208
# 208746
# 225005
# 245072
#
# Disc length: 3508 seconds
#
#
# Revision: 0
# Processed by: cddbd v1.5.2PL0 Copyright (c) Steve Scherf et al.
# Submitted via: FreeRIP 2.945 
#
DISCID=c50db20f
DTITLE=Rick e Renner - Coisa de Deus
DYEAR=2007
DGENRE=Sertaneja
TTITLE0=Coisa de Deus
TTITLE1=Quando
TTITLE2=Credencial
TTITLE3=Nunca Amei Assim
TTITLE4=Faz Amor que Passa
TTITLE5=Tudo Errado
TTITLE6=Vixe Maria
TTITLE7=Fiquei Fã
TTITLE8=Onde é que Está Meu Amor
TTITLE9=Meu Anjo Mau
TTITLE10=Galera da Balada
TTITLE11=Pneuzinho
TTITLE12=Na Cara do Meu Coração
TTITLE13=Vai, Vai Muuuu
TTITLE14=Te Amo Pai
EXTD=
EXTT0=
EXTT1=
EXTT2=
EXTT3=
EXTT4=
EXTT5=
EXTT6=
EXTT7=
EXTT8=
EXTT9=
EXTT10=
EXTT11=
EXTT12=
EXTT13=
EXTT14=
PLAYORDER=
